<svg width="48" height="48" viewBox="0 0 48 48" fill="none" xmlns="http://www.w3.org/2000/svg">
<rect width="48" height="48" rx="24" fill="#828282"/>
<path d="M20.8015 38.9307L21.2045 39.23L21.5022 38.8258L30.9768 25.9586L30.9769 25.9586L30.9786 25.9562C32.7959 23.4574 33.7461 21.0763 33.7461 18.8242C33.7461 16.2997 32.7695 14.1095 30.8499 12.2758C28.9314 10.4313 26.658 9.5 24.0527 9.5C21.4337 9.5 19.1743 10.4448 17.3007 12.3183C15.4377 14.1814 14.5 16.4412 14.5 19.0703C14.5 21.5405 15.3449 23.669 17.0295 25.4279L17.0296 25.4279C18.7231 27.1957 20.7495 28.0957 23.0859 28.0957C23.2058 28.0957 23.3455 28.0895 23.5032 28.0777L17.6906 36.0011L17.3966 36.4019L17.7956 36.6983L20.8015 38.9307ZM20.8379 22.1093C19.9397 21.2111 19.4902 20.1096 19.4902 18.7715C19.4902 17.5387 19.9373 16.4749 20.8555 15.5567C21.758 14.6542 22.8321 14.209 24.1055 14.209C25.4048 14.209 26.4898 14.6559 27.3906 15.5567C28.3052 16.4713 28.7559 17.5572 28.7559 18.8418C28.7559 20.1264 28.3052 21.2123 27.3906 22.1269C26.489 23.0285 25.4094 23.4746 24.123 23.4746C22.8385 23.4746 21.7525 23.0239 20.8379 22.1093Z" fill="white" stroke="#C0C0C0"/>
</svg>
